# xmcd CD database file
#
# Track frame offsets:
#	150
#	23627
#	47145
#	69227
#	93350
#	116307
#	152812
#
# Disc length: 2340 seconds
#
# Revision: 0
# Processed by: cddbd v1.5.1PL0 Copyright (c) Steve Scherf et al.
# Submitted via: CDex 1.50
#
DISCID=4b092207
DTITLE=Don Randi - Feelin' like Blues
DYEAR=1960
DGENRE=Jazz
TTITLE0=Feelin' like Blues
TTITLE1=Summertime
TTITLE2=Ja Da
TTITLE3=Fallout
TTITLE4=Buddha's Mood
TTITLE5=Cheek to cheek
TTITLE6=Blues for Miti
EXTD=YEAR: 1960
EXTT0=
EXTT1=
EXTT2=
EXTT3=
EXTT4=
EXTT5=
EXTT6=
PLAYORDER=
